<svg width="195" height="237" viewBox="0 0 195 237" fill="none" xmlns="http://www.w3.org/2000/svg">
<g clip-path="url(#clip0_13_379)">
<path d="M172.606 236.617H87.7076C75.3588 236.617 65.3136 227.698 65.3136 216.734V19.8837C65.3136 8.91917 75.3588 0 87.7076 0H172.606C184.955 0 195 8.91917 195 19.8837V216.734C195 227.698 184.955 236.617 172.606 236.617Z" fill="#DADBDC"/>
<path d="M172.668 231.235H87.646C78.5065 231.235 71.0682 224.63 71.0682 216.515V19.7158C71.0682 11.6008 78.5065 4.99629 87.646 4.99629H172.668C181.807 4.99629 189.245 11.6008 189.245 19.7158V216.515C189.245 224.63 181.807 231.235 172.668 231.235Z" fill="white"/>
<path d="M142.18 18.096H118.138C114.964 18.096 112.383 15.8047 112.383 12.9865C112.383 10.1682 114.964 7.87697 118.138 7.87697H142.18C145.354 7.87697 147.935 10.1682 147.935 12.9865C147.935 15.8047 145.354 18.096 142.18 18.096Z" fill="#DADBDC"/>
<path d="M166.715 78.192H96.3636C94.97 78.192 93.8358 76.9117 93.8358 75.3426C93.8358 73.7734 94.97 72.4931 96.3636 72.4931H166.715C168.109 72.4931 169.243 73.7734 169.243 75.3426C169.243 76.9117 168.109 78.192 166.715 78.192Z" fill="#DADBDC"/>
<path d="M166.715 90.8194H96.3636C94.97 90.8194 93.8358 89.5391 93.8358 87.9699C93.8358 86.4008 94.97 85.1205 96.3636 85.1205H166.715C168.109 85.1205 169.243 86.4008 169.243 87.9699C169.243 89.5391 168.109 90.8194 166.715 90.8194Z" fill="#DADBDC"/>
<path d="M146.541 103.447H96.3636C94.97 103.447 93.8358 102.166 93.8358 100.597C93.8358 99.0281 94.97 97.7478 96.3636 97.7478H146.541C147.935 97.7478 149.069 99.0281 149.069 100.597C149.069 102.166 147.935 103.447 146.541 103.447Z" fill="#DADBDC"/>
<path d="M130.157 177.689C146.742 177.689 160.187 165.751 160.187 151.025C160.187 136.299 146.742 124.361 130.157 124.361C113.572 124.361 100.127 136.299 100.127 151.025C100.127 165.751 113.572 177.689 130.157 177.689Z" fill="#63FFE4"/>
<path d="M122.169 151.579C123.721 154.276 125.273 156.977 126.824 159.675C127.269 160.451 128.574 160.205 128.834 159.44C130.869 153.414 134.65 147.922 139.745 143.554C140.765 142.679 139.208 141.301 138.189 142.172C132.825 146.77 128.856 152.582 126.71 158.921L128.719 158.687C127.167 155.99 125.616 153.289 124.064 150.591C123.422 149.471 121.523 150.459 122.165 151.575H122.169V151.579Z" fill="white"/>
<path d="M49.2017 118.771L41.9217 120.977L41.8074 111.644L48.4324 111.577L49.2017 118.771Z" fill="#F3A3A6"/>
<path d="M42.6602 114.22C46.6809 114.22 49.9402 111.326 49.9402 107.756C49.9402 104.186 46.6809 101.292 42.6602 101.292C38.6396 101.292 35.3802 104.186 35.3802 107.756C35.3802 111.326 38.6396 114.22 42.6602 114.22Z" fill="#F3A3A6"/>
<path d="M44.6517 107.096C43.4339 107.077 42.6206 105.992 42.1327 104.996C41.6447 104.005 41.1435 102.861 40.0137 102.459C39.0861 102.131 37.4859 104.423 36.7474 103.825C35.9781 103.201 36.6814 99.9454 37.4815 99.356C38.2816 98.7666 39.3851 98.6417 40.4226 98.587C42.9591 98.4582 45.5089 98.6144 48.0015 99.0515C49.5402 99.3209 51.1316 99.7346 52.2526 100.71C53.6726 101.948 54.055 103.833 54.1781 105.597C54.3056 107.401 54.2089 109.294 53.2417 110.887C52.2702 112.475 50.2172 113.662 48.2257 113.279C48.0147 112.323 48.2038 111.339 48.2697 110.363C48.3356 109.392 48.2389 108.342 47.5619 107.573C46.8849 106.804 45.4518 106.511 44.6824 107.206" fill="#2F2E43"/>
<path d="M53.633 109.247C54.354 108.767 55.22 108.361 56.1169 108.451C57.0884 108.544 57.9149 109.247 58.1743 110.082C58.4336 110.918 58.1655 111.843 57.5764 112.534C56.9873 113.225 56.1037 113.685 55.1629 113.919C54.6178 114.056 54.0243 114.115 53.5012 113.919C52.7318 113.634 52.3098 112.772 52.5999 112.077" fill="#2F2E43"/>
<path d="M26.544 170.315C26.0868 172.442 26.9968 174.375 28.5838 174.628C30.1664 174.882 31.8237 173.36 32.2809 171.232C32.4788 170.385 32.4348 169.507 32.1534 168.676L37.7541 135.337L30.2103 134.154L27.7265 167.969C27.1199 168.66 26.711 169.464 26.544 170.319V170.315Z" fill="#F3A3A6"/>
<path d="M41.7898 116.695L36.6507 116.745C33.0239 117.268 32.0567 119.002 31.2742 122.187C30.0741 127.046 28.5442 133.522 28.8651 133.612C29.3795 133.76 38.1718 137.328 42.6207 136.446L41.7898 116.695Z" fill="#63FFE4"/>
<path d="M48.1007 222.652L41.2607 222.719L41.3691 231.334L48.2091 231.266L48.1007 222.652Z" fill="#F3A3A6"/>
<path d="M34.756 236.617C34.035 236.625 33.3976 236.617 32.914 236.582C31.094 236.454 29.3487 235.279 28.4651 234.592C28.0694 234.283 27.9376 233.784 28.1354 233.354C28.2761 233.046 28.5662 232.812 28.9267 232.714L33.7141 231.449L41.4293 226.715L41.5173 226.851C41.5524 226.902 42.3305 228.116 42.5943 228.94C42.6954 229.252 42.6734 229.513 42.5284 229.716C42.4273 229.857 42.2866 229.939 42.1723 229.99C42.313 230.118 42.757 230.38 44.1198 230.559C46.1024 230.821 46.5025 228.99 46.5157 228.912L46.5289 228.85L46.586 228.815C47.5224 228.264 48.0983 228.014 48.3005 228.065C48.428 228.096 48.6346 228.151 49.2589 233.116C49.316 233.272 49.7249 234.412 49.4699 235.509C49.1929 236.703 43.3329 236.348 42.1635 236.266C42.1283 236.27 37.7498 236.59 34.7472 236.617H34.756Z" fill="#2F2E43"/>
<path d="M67.4919 215.677L61.7285 218.948L66.9544 226.206L72.7178 222.935L67.4919 215.677Z" fill="#F3A3A6"/>
<path d="M60.0118 235.185C59.2073 235.193 58.4688 235.115 57.9412 235.037C57.4225 234.959 57.0137 234.599 56.9257 234.139C56.8598 233.807 56.9697 233.475 57.2159 233.225L60.5218 229.904L64.2453 222.261L64.4036 222.335C64.4607 222.362 65.8455 223.026 66.5621 223.6C66.8347 223.818 66.9709 224.049 66.9709 224.291C66.9709 224.459 66.9006 224.595 66.8303 224.689C67.0281 224.732 67.56 224.743 68.8217 224.256C70.6593 223.545 69.9076 221.804 69.8724 221.734L69.846 221.675L69.8768 221.621C70.3428 220.715 70.6857 220.231 70.8835 220.177C71.011 220.145 71.2176 220.091 74.7082 224.01C74.8488 224.115 75.8775 224.888 76.3128 225.938C76.7875 227.082 71.6089 229.533 70.5626 230.013C70.5318 230.036 65.1202 233.608 62.8957 234.631C62.0121 235.037 60.9614 235.169 60.003 235.177L60.0118 235.185Z" fill="#2F2E43"/>
<path d="M52.2218 150.545L33.0722 150.732L31.5336 166.564L39.8687 224.935L49.6457 224.837L45.3155 191.12L61.5549 221.441L70.1757 215.953L57.4357 187.623C57.4357 187.623 61.5505 162.793 57.9984 156.653C54.4463 150.513 52.2262 150.537 52.2262 150.537V150.545H52.2218Z" fill="#2F2E43"/>
<path d="M61.7571 151.415L31.3445 151.716L40.0313 116.714L53.2857 116.582L61.7571 151.415Z" fill="#63FFE4"/>
<path d="M64.7289 169.94C65.2388 172.06 64.3772 174.008 62.799 174.293C61.2207 174.578 59.5282 173.09 59.0183 170.971C58.7985 170.128 58.8204 169.249 59.0798 168.41L52.6439 135.189L60.1569 133.858L63.4848 167.618C64.109 168.297 64.5354 169.093 64.7289 169.944V169.94Z" fill="#F3A3A6"/>
<path d="M48.1466 116.632L53.2857 116.582C56.9257 117.034 57.9324 118.748 58.7985 121.917C60.1173 126.754 61.8098 133.194 61.4933 133.292C60.979 133.448 52.2834 137.187 47.8125 136.395L48.151 116.632H48.1466Z" fill="#63FFE4"/>
<path d="M94.5524 236.617C94.5524 236.828 94.3589 237 94.1216 237H0.430823C0.193431 237 0 236.828 0 236.617C0 236.407 0.193431 236.235 0.430823 236.235H94.1216C94.3589 236.235 94.5524 236.407 94.5524 236.617Z" fill="#3F3D58"/>
</g>
<defs>
<clipPath id="clip0_13_379">
<rect width="195" height="237" fill="white"/>
</clipPath>
</defs>
</svg>
